<svg xmlns="http://www.w3.org/2000/svg" width="656" height="854" viewBox="0 0 656 854" version="1.1"><path d="M 211 5 C 211 5.564, 208.167 6, 204.500 6 C 200.833 6, 198 6.436, 198 7 C 198 7.550, 196.168 8, 193.929 8 C 191.643 8, 189.199 8.658, 188.357 9.500 C 187.532 10.325, 185.989 11, 184.929 11 C 183.868 11, 183 11.450, 183 12 C 183 12.550, 181.875 13, 180.500 13 C 179.125 13, 178 13.450, 178 14 C 178 14.550, 177.100 15, 176 15 C 174.900 15, 174 15.450, 174 16 C 174 16.550, 172.650 17, 171 17 C 169.350 17, 168 17.450, 168 18 C 168 18.550, 166.875 19, 165.500 19 C 164.125 19, 163 19.450, 163 20 C 163 20.550, 162.100 21, 161 21 C 159.889 21, 159 21.667, 159 22.500 C 159 23.433, 158.056 24, 156.500 24 C 155.125 24, 154 24.450, 154 25 C 154 25.550, 153.100 26, 152 26 C 150.900 26, 150 26.450, 150 27 C 150 27.550, 149.100 28, 148 28 C 146.900 28, 146 28.450, 146 29 C 146 29.550, 145.100 30, 144 30 C 142.900 30, 142 30.450, 142 31 C 142 31.550, 141.531 32, 140.958 32 C 139.868 32, 138.509 32.999, 134.497 36.750 C 133.174 37.987, 131.270 39, 130.266 39 C 129.263 39, 127.793 39.900, 127 41 C 126.207 42.100, 124.922 43, 124.144 43 C 123.366 43, 121.687 44.125, 120.412 45.500 C 119.138 46.875, 117.634 48, 117.071 48 C 116.507 48, 113.491 50.475, 110.367 53.500 C 107.244 56.525, 104.288 59, 103.799 59 C 102.315 59, 98 63.803, 98 65.455 C 98 66.305, 97.518 67, 96.929 67 C 95.748 67, 93 69.467, 93 70.527 C 93 70.896, 91.650 72.459, 90 74 C 88.350 75.541, 87 77.304, 87 77.916 C 87 78.529, 84.975 81.114, 82.500 83.660 C 80.025 86.207, 78 88.801, 78 89.424 C 78 90.048, 77.100 91.207, 76 92 C 74.900 92.793, 74 93.811, 74 94.263 C 74 95.141, 72.846 96.657, 69.250 100.503 C 68.013 101.826, 67 103.605, 67 104.455 C 67 105.305, 66.550 106, 66 106 C 65.450 106, 65 106.675, 65 107.500 C 65 108.325, 64.550 109, 64 109 C 63.450 109, 63 109.793, 63 110.763 C 63 111.732, 61.875 113.370, 60.500 114.403 C 59.125 115.435, 58 116.892, 58 117.640 C 58 118.388, 57.550 119, 57 119 C 56.450 119, 56 119.675, 56 120.500 C 56 121.325, 55.550 122, 55 122 C 54.450 122, 54 123.125, 54 124.500 C 54 125.875, 53.550 127, 53 127 C 52.450 127, 52 127.900, 52 129 C 52 130.100, 51.550 131, 51 131 C 50.450 131, 50 131.900, 50 133 C 50 134.100, 49.550 135, 49 135 C 48.450 135, 48 135.900, 48 137 C 48 138.111, 47.333 139, 46.500 139 C 45.567 139, 45 139.944, 45 141.500 C 45 142.875, 44.550 144, 44 144 C 43.450 144, 43 145.350, 43 147 C 43 148.650, 42.550 150, 42 150 C 41.450 150, 41 151.125, 41 152.500 C 41 153.875, 40.550 155, 40 155 C 39.450 155, 39 156.350, 39 158 C 39 159.650, 38.550 161, 38 161 C 37.450 161, 37 161.707, 37 162.571 C 37 163.436, 36.344 164.799, 35.542 165.600 C 34.741 166.402, 34.339 167.720, 34.649 168.529 C 35.002 169.448, 34.611 170, 33.607 170 C 32.488 170, 32 170.911, 32 173 C 32 174.650, 31.550 176, 31 176 C 30.450 176, 30 178.025, 30 180.500 C 30 182.975, 29.550 185, 29 185 C 28.450 185, 28 186.575, 28 188.500 C 28 190.425, 27.550 192, 27 192 C 26.450 192, 26 194.025, 26 196.500 C 26 198.975, 25.550 201, 25 201 C 24.450 201, 24 203.250, 24 206 C 24 209.778, 23.633 211, 22.500 211 C 21.348 211, 21 212.278, 21 216.500 C 21 219.525, 20.550 222, 20 222 C 19.450 222, 19 224.025, 19 226.500 C 19 228.975, 18.550 231, 18 231 C 17.450 231, 17 233.475, 17 236.500 C 17 239.525, 16.550 242, 16 242 C 15.422 242, 15 245.167, 15 249.500 C 15 253.833, 14.578 257, 14 257 C 13.422 257, 13 260.167, 13 264.500 C 13 268.625, 12.604 272, 12.119 272 C 11.635 272, 11.048 276.358, 10.815 281.685 C 10.540 287.976, 9.972 291.509, 9.196 291.768 C 8.365 292.045, 8 295.503, 8 303.083 C 8 309.694, 7.606 314, 7 314 C 6.375 314, 6 320, 6 330 C 6 340, 5.625 346, 5 346 C 4.344 346, 4 367.500, 4 408.500 C 4 449.500, 4.344 471, 5 471 C 5.632 471, 6 478.167, 6 490.500 C 6 502.833, 6.368 510, 7 510 C 7.628 510, 8 516.357, 8 527.071 C 8 540.913, 8.284 544.427, 9.500 545.643 C 10.596 546.739, 11 549.413, 11 555.571 C 11 560.524, 11.412 564, 12 564 C 12.593 564, 13 567.667, 13 573 C 13 578.333, 13.407 582, 14 582 C 14.578 582, 15 585.167, 15 589.500 C 15 593.833, 15.422 597, 16 597 C 16.550 597, 17 599.475, 17 602.500 C 17 605.525, 17.450 608, 18 608 C 18.550 608, 19 610.475, 19 613.500 C 19 616.525, 19.450 619, 20 619 C 20.550 619, 21 621.025, 21 623.500 C 21 626.833, 21.389 628, 22.500 628 C 23.652 628, 24 629.278, 24 633.500 C 24 636.525, 24.450 639, 25 639 C 25.550 639, 26 641.250, 26 644 C 26 646.750, 26.450 649, 27 649 C 27.550 649, 28 651.025, 28 653.500 C 28 655.975, 28.450 658, 29 658 C 29.550 658, 30 660.025, 30 662.500 C 30 664.975, 30.450 667, 31 667 C 31.550 667, 32 668.382, 32 670.071 C 32 671.761, 32.690 673.833, 33.534 674.677 C 34.378 675.520, 34.812 677.016, 34.500 678 C 34.188 678.984, 34.622 680.480, 35.466 681.323 C 36.310 682.167, 37 684.464, 37 686.429 C 37 688.393, 37.450 690, 38 690 C 38.550 690, 39 691.575, 39 693.500 C 39 695.425, 39.450 697, 40 697 C 40.550 697, 41 699.025, 41 701.500 C 41 703.975, 41.450 706, 42 706 C 42.550 706, 43 707.575, 43 709.500 C 43 711.425, 43.450 713, 44 713 C 44.550 713, 45 714.350, 45 716 C 45 718, 45.500 719, 46.500 719 C 47.548 719, 48 720.056, 48 722.500 C 48 724.425, 48.450 726, 49 726 C 49.550 726, 50 727.350, 50 729 C 50 730.650, 50.450 732, 51 732 C 51.550 732, 52 733.575, 52 735.500 C 52 737.425, 52.450 739, 53 739 C 53.550 739, 54 740.350, 54 742 C 54 743.650, 54.450 745, 55 745 C 55.550 745, 56 746.382, 56 748.071 C 56 749.761, 56.690 751.833, 57.534 752.677 C 58.416 753.559, 58.812 755.017, 58.465 756.110 C 58.078 757.330, 58.424 758.225, 59.431 758.612 C 60.356 758.967, 61 760.401, 61 762.107 C 61 763.698, 61.450 765, 62 765 C 62.550 765, 63 766.575, 63 768.500 C 63 770.425, 63.450 772, 64 772 C 64.550 772, 65 773.350, 65 775 C 65 776.650, 65.450 778, 66 778 C 66.550 778, 67 779.323, 67 780.941 C 67 782.559, 67.450 784.160, 68 784.500 C 68.550 784.840, 69 786.441, 69 788.059 C 69 790.007, 69.507 791, 70.500 791 C 71.333 791, 72 791.889, 72 793 C 72 794.100, 72.450 795, 73 795 C 73.550 795, 74 796.125, 74 797.500 C 74 798.875, 74.450 800, 75 800 C 75.550 800, 76 800.900, 76 802 C 76 803.100, 76.450 804, 77 804 C 77.550 804, 78 805.125, 78 806.500 C 78 807.875, 78.450 809, 79 809 C 79.550 809, 80 809.900, 80 811 C 80 812.100, 80.450 813, 81 813 C 81.550 813, 82 813.900, 82 815 C 82 816.111, 82.667 817, 83.500 817 C 84.325 817, 85 817.675, 85 818.500 C 85 819.325, 85.450 820, 86 820 C 86.550 820, 87 820.900, 87 822 C 87 823.100, 87.450 824, 88 824 C 88.550 824, 89 824.801, 89 825.779 C 89 826.758, 89.900 828.207, 91 829 C 92.100 829.793, 93 830.811, 93 831.263 C 93 832.192, 93.952 833.390, 99.172 839.032 C 101.191 841.214, 103.292 843, 103.841 843 C 105.306 843, 110.986 846.375, 110.994 847.250 C 111.004 848.484, 126.720 848.097, 131.016 846.757 C 133.207 846.073, 135 844.948, 135 844.257 C 135 843.565, 135.482 843, 136.071 843 C 137.665 843, 140 840.367, 140 838.571 C 140 837.707, 140.450 837, 141 837 C 141.550 837, 142 836.100, 142 835 C 142 833.900, 142.450 833, 143 833 C 143.550 833, 144 831.425, 144 829.500 C 144 827.575, 144.450 826, 145 826 C 145.557 826, 146 823.310, 146 819.929 C 146 811.807, 146.943 811, 156.429 811 C 160.810 811, 164 810.579, 164 810 C 164 808.917, 178.753 808.584, 181.418 809.607 C 182.713 810.104, 183 812.008, 183 820.107 C 183 826.036, 183.401 830, 184 830 C 184.550 830, 185 831.350, 185 833 C 185 834.650, 185.450 836, 186 836 C 186.550 836, 187 836.900, 187 838.001 C 187 840.110, 194.418 848, 196.400 848 C 197.037 848, 198.207 848.900, 199 850 C 199.793 851.100, 201.467 852, 202.721 852 C 203.974 852, 205 852.450, 205 853 C 205 853.564, 207.833 854, 211.500 854 C 215.167 854, 218 853.564, 218 853 C 218 852.450, 219.125 852, 220.500 852 C 221.875 852, 223 851.550, 223 851 C 223 850.450, 223.695 850, 224.545 850 C 226.031 850, 231 845.746, 231 844.474 C 231 844.135, 231.563 843.230, 232.250 842.463 C 235.442 838.904, 236 837.948, 236 836.042 C 236 834.919, 236.450 834, 237 834 C 237.550 834, 238 832.650, 238 831 C 238 829.350, 238.450 828, 239 828 C 239.550 828, 240 825.525, 240 822.500 C 240 817, 240 817, 295.071 817 C 358.531 817, 353 816.004, 353 827.429 C 353 831.810, 353.421 835, 354 835 C 354.550 835, 355 835.900, 355 837 C 355 838.100, 355.450 839, 356 839 C 356.550 839, 357 839.690, 357 840.534 C 357 842.470, 362.580 848, 364.534 848 C 365.341 848, 366 848.450, 366 849 C 366 849.550, 366.900 850, 368 850 C 369.100 850, 370 850.450, 370 851 C 370 851.556, 372.667 852, 376 852 C 379.333 852, 382 851.556, 382 851 C 382 850.450, 383.350 850, 385 850 C 386.650 850, 388 849.550, 388 849 C 388 848.450, 388.873 848, 389.941 848 C 391.009 848, 392.160 847.550, 392.500 847 C 392.840 846.450, 393.991 846, 395.059 846 C 396.127 846, 397 845.424, 397 844.721 C 397 844.017, 397.900 842.793, 399 842 C 400.100 841.207, 401 839.963, 401 839.236 C 401 838.508, 402.125 836.699, 403.500 835.217 C 404.875 833.734, 406 831.953, 406 831.260 C 406 830.567, 406.450 830, 407 830 C 407.550 830, 408 828.650, 408 827 C 408 825.350, 408.450 824, 409 824 C 409.550 824, 410 822.618, 410 820.929 C 410 816.309, 411.972 815, 418.929 815 C 422.310 815, 425 814.557, 425 814 C 425 813.450, 426.350 813, 428 813 C 430.667 813, 431 813.333, 431 816 C 431 817.650, 431.450 819, 432 819 C 432.550 819, 433 821.475, 433 824.500 C 433 828.827, 433.334 830, 434.567 830 C 435.681 830, 435.951 830.580, 435.498 832.005 C 435.076 833.337, 435.388 834.212, 436.431 834.612 C 437.294 834.943, 438 835.859, 438 836.647 C 438 838.508, 445.642 846, 447.540 846 C 448.343 846, 449 846.450, 449 847 C 449 847.550, 450.350 848, 452 848 C 453.650 848, 455 848.450, 455 849 C 455 849.550, 456.575 850, 458.500 850 C 460.425 850, 462 849.550, 462 849 C 462 848.450, 463.382 848, 465.071 848 C 466.761 848, 468.770 847.438, 469.537 846.750 C 472.846 843.782, 473.977 843, 474.958 843 C 475.531 843, 476 842.550, 476 842 C 476 841.450, 476.900 841, 478 841 C 479.251 841, 480 840.333, 480 839.221 C 480 838.242, 480.900 836.793, 482 836 C 483.100 835.207, 484 833.533, 484 832.279 C 484 831.026, 484.450 830, 485 830 C 485.550 830, 486 829.100, 486 828 C 486 826.889, 486.667 826, 487.500 826 C 488.333 826, 489 825.111, 489 824 C 489 822.900, 489.450 822, 490 822 C 490.550 822, 491 820.618, 491 818.929 C 491 813.777, 492.695 813, 503.929 813 C 509.976 813, 514 813.400, 514 814 C 514 814.644, 524.500 815, 543.500 815 C 562.500 815, 573 814.644, 573 814 C 573 813.374, 579.167 813, 589.500 813 C 599.833 813, 606 812.626, 606 812 C 606 811.437, 608.806 811, 612.417 811 C 615.946 811, 618.983 810.570, 619.167 810.044 C 619.350 809.519, 622.749 808.979, 626.720 808.845 C 631.535 808.682, 634.105 808.168, 634.438 807.301 C 634.756 806.472, 636.762 806, 639.969 806 C 642.736 806, 645 805.550, 645 805 C 645 804.450, 646.382 804, 648.071 804 C 651.631 804, 654 802.030, 654 799.071 C 654 797.529, 653.362 797, 651.500 797 C 650.125 797, 649 796.550, 649 796 C 649 795.450, 647.650 795, 646 795 C 644.350 795, 643 794.550, 643 794 C 643 793.450, 640.975 793, 638.500 793 C 636.025 793, 634 792.550, 634 792 C 634 791.450, 633.132 791, 632.071 791 C 631.011 791, 629.468 790.325, 628.643 789.500 C 627.818 788.675, 625.761 788, 624.071 788 C 622.382 788, 621 787.550, 621 787 C 621 786.450, 619.650 786, 618 786 C 616.350 786, 615 785.550, 615 785 C 615 784.450, 613.425 784, 611.500 784 C 609.575 784, 608 783.550, 608 783 C 608 782.450, 606.425 782, 604.500 782 C 602.575 782, 601 781.550, 601 781 C 601 780.450, 599.200 780, 597 780 C 594.111 780, 593 779.583, 593 778.500 C 593 777.500, 592 777, 590 777 C 588.350 777, 587 776.550, 587 776 C 587 775.450, 585.875 775, 584.500 775 C 583.125 775, 582 774.550, 582 774 C 582 773.450, 580.425 773, 578.500 773 C 576.575 773, 575 772.550, 575 772 C 575 771.450, 573.650 771, 572 771 C 570.350 771, 569 770.550, 569 770 C 569 769.450, 567.650 769, 566 769 C 564.350 769, 563 768.550, 563 768 C 563 767.450, 561.875 767, 560.500 767 C 558.944 767, 558 766.433, 558 765.500 C 558 764.667, 557.111 764, 556 764 C 554.900 764, 554 763.550, 554 763 C 554 762.450, 552.875 762, 551.500 762 C 550.125 762, 549 761.550, 549 761 C 549 760.450, 548.100 760, 547 760 C 545.900 760, 545 759.550, 545 759 C 545 758.450, 544.100 758, 543 758 C 541.900 758, 541 757.550, 541 757 C 541 756.450, 540.100 756, 539 756 C 537.900 756, 537 755.550, 537 755 C 537 754.450, 536.325 754, 535.500 754 C 534.675 754, 534 753.325, 534 752.500 C 534 751.675, 533.199 751, 532.221 751 C 531.242 751, 529.793 750.100, 529 749 C 528.207 747.900, 526.743 747, 525.746 747 C 524.749 747, 522.398 745.538, 520.521 743.750 C 516.015 739.458, 514.220 738, 513.443 738 C 513.091 738, 511.541 736.650, 510 735 C 508.459 733.350, 506.644 732, 505.967 732 C 505.290 732, 503.251 730.425, 501.435 728.500 C 499.620 726.575, 497.643 725, 497.042 725 C 495.639 725, 458 687.297, 458 685.892 C 458 685.310, 456.425 683.304, 454.500 681.434 C 452.575 679.565, 451 677.542, 451 676.939 C 451 676.336, 449.200 674.114, 447 672 C 444.800 669.886, 443 667.752, 443 667.257 C 443 666.763, 440.975 664.244, 438.500 661.661 C 436.025 659.078, 434 656.298, 434 655.482 C 434 654.667, 433.550 654, 433 654 C 432.450 654, 432 653.530, 432 652.955 C 432 652.380, 430.988 650.826, 429.750 649.503 C 425.999 645.491, 425 644.132, 425 643.042 C 425 642.469, 424.550 642, 424 642 C 423.450 642, 423 641.333, 423 640.518 C 423 639.702, 420.975 636.922, 418.500 634.339 C 416.025 631.756, 414 629.228, 414 628.722 C 414 628.216, 412.650 626.541, 411 625 C 409.350 623.459, 408 621.684, 408 621.057 C 408 620.430, 407.100 618.950, 406 617.770 C 404.900 616.589, 404 614.808, 404 613.811 C 404 612.815, 403.518 612, 402.929 612 C 401.544 612, 399 609.456, 399 608.071 C 399 607.482, 398.550 607, 398 607 C 397.450 607, 397 606.293, 397 605.429 C 397 603.885, 394.737 601, 393.526 601 C 392.243 601, 388 596.024, 388 594.519 C 388 592.789, 379.666 584, 378.026 584 C 377.462 584, 377 583.538, 377 582.974 C 377 581.914, 368.495 573, 367.484 573 C 366.848 573, 365.064 571.585, 361.497 568.250 C 360.174 567.013, 358.395 566, 357.545 566 C 356.695 566, 356 565.550, 356 565 C 356 564.450, 355.325 564, 354.500 564 C 353.675 564, 353 563.550, 353 563 C 353 562.450, 352.100 562, 351 562 C 349.900 562, 349 561.550, 349 561 C 349 560.450, 348.311 560, 347.469 560 C 346.626 560, 345.678 559.325, 345.362 558.500 C 345.045 557.675, 343.709 557, 342.393 557 C 341.077 557, 340 556.550, 340 556 C 340 555.450, 339.100 555, 338 555 C 336.900 555, 336 554.550, 336 554 C 336 553.450, 334.875 553, 333.500 553 C 332.125 553, 331 552.550, 331 552 C 331 551.450, 329.650 551, 328 551 C 326.350 551, 325 550.550, 325 550 C 325 549.450, 323.425 549, 321.500 549 C 319.056 549, 318 548.548, 318 547.500 C 318 546.500, 317 546, 315 546 C 313.350 546, 312 545.550, 312 545 C 312 544.437, 309.186 544, 305.559 544 C 302.016 544, 298.840 543.550, 298.500 543 C 298.121 542.386, 289.990 542, 277.441 542 C 264.480 542, 257 542.366, 257 543 C 257 543.577, 253.861 544, 249.583 544 C 245.028 544, 242.024 544.429, 241.796 545.112 C 241.592 545.725, 239.082 546.260, 236.213 546.303 C 232.624 546.357, 231 546.790, 231 547.691 C 231 548.576, 229.542 549, 226.500 549 C 224.025 549, 222 549.450, 222 550 C 222 550.550, 220.425 551, 218.500 551 C 216.575 551, 215 551.450, 215 552 C 215 552.550, 213.200 553, 211 553 C 208.800 553, 207 553.450, 207 554 C 207 554.550, 205.462 555, 203.583 555 C 201.704 555, 200.003 555.492, 199.802 556.093 C 199.602 556.694, 197.765 557.233, 195.719 557.291 C 193.386 557.357, 192 557.881, 192 558.698 C 192 559.519, 190.708 560, 188.500 560 C 186.575 560, 185 560.450, 185 561 C 185 561.550, 183.425 562, 181.500 562 C 179.575 562, 178 562.450, 178 563 C 178 563.550, 176.200 564, 174 564 C 171.800 564, 170 564.450, 170 565 C 170 565.550, 168.875 566, 167.500 566 C 166.125 566, 165 566.450, 165 567 C 165 567.550, 164.325 568, 163.500 568 C 162.667 568, 162 567.111, 162 566 C 162 564.889, 161.333 564, 160.500 564 C 159.667 564, 159 563.111, 159 562 C 159 560.900, 158.550 560, 158 560 C 157.450 560, 157 558.425, 157 556.500 C 157 554.575, 156.550 553, 156 553 C 155.450 553, 155 551.650, 155 550 C 155 548.350, 154.550 547, 154 547 C 153.450 547, 153 544.975, 153 542.500 C 153 540.025, 152.550 538, 152 538 C 151.450 538, 151 536.650, 151 535 C 151 533.350, 150.550 532, 150 532 C 149.450 532, 149 530.425, 149 528.500 C 149 526.056, 148.548 525, 147.500 525 C 146.452 525, 146 523.944, 146 521.500 C 146 519.575, 145.550 518, 145 518 C 144.450 518, 144 516.200, 144 514 C 144 511.800, 143.550 510, 143 510 C 142.450 510, 142 507.975, 142 505.500 C 142 503.025, 141.550 501, 141 501 C 140.450 501, 140 498.975, 140 496.500 C 140 494.025, 139.550 492, 139 492 C 138.450 492, 138 490.238, 138 488.083 C 138 485.912, 137.462 483.987, 136.792 483.764 C 136.128 483.543, 135.472 481.599, 135.334 479.445 C 135.196 477.290, 134.615 475.372, 134.042 475.181 C 133.469 474.990, 133 472.846, 133 470.417 C 133 467.988, 132.550 466, 132 466 C 131.422 466, 131 462.833, 131 458.500 C 131 454.167, 130.578 451, 130 451 C 129.422 451, 129 447.833, 129 443.500 C 129 439.167, 128.578 436, 128 436 C 127.417 436, 127 432.667, 127 428 C 127 423.333, 126.583 420, 126 420 C 125.412 420, 125 416.500, 125 411.500 C 125 404.611, 124.716 403, 123.500 403 C 122.244 403, 122 400.889, 122 390 C 122 382, 121.615 377, 121 377 C 120.355 377, 120 366.167, 120 346.500 C 120 326.833, 120.355 316, 121 316 C 121.619 316, 122 310.667, 122 302 C 122 290.222, 122.238 288, 123.500 288 C 124.708 288, 125 286.444, 125 280 C 125 275.333, 125.417 272, 126 272 C 126.564 272, 127 269.167, 127 265.500 C 127 261.833, 127.436 259, 128 259 C 128.564 259, 129 256.167, 129 252.500 C 129 248.833, 129.436 246, 130 246 C 130.550 246, 131 243.525, 131 240.500 C 131 237.475, 131.450 235, 132 235 C 132.550 235, 133 233.237, 133 231.083 C 133 228.929, 133.479 227.007, 134.065 226.812 C 134.651 226.616, 135.270 224.685, 135.442 222.519 C 135.614 220.354, 136.260 218.413, 136.877 218.208 C 137.495 218.002, 138 216.296, 138 214.417 C 138 212.537, 138.450 211, 139 211 C 139.550 211, 140 209.200, 140 207 C 140 204.800, 140.450 203, 141 203 C 141.550 203, 142 201.425, 142 199.500 C 142 197.575, 142.450 196, 143 196 C 143.550 196, 144 194.650, 144 193 C 144 191.350, 144.450 190, 145 190 C 145.550 190, 146 188.425, 146 186.500 C 146 184.056, 146.452 183, 147.500 183 C 148.500 183, 149 182, 149 180 C 149 178.350, 149.450 177, 150 177 C 150.550 177, 151 175.875, 151 174.500 C 151 173.125, 151.450 172, 152 172 C 152.550 172, 153 171.100, 153 170 C 153 168.900, 153.450 168, 154 168 C 154.550 168, 155 166.875, 155 165.500 C 155 164.125, 155.450 163, 156 163 C 156.550 163, 157 162.306, 157 161.458 C 157 159.884, 157.776 158.748, 161.750 154.497 C 162.987 153.174, 164 151.620, 164 151.045 C 164 150.470, 164.450 150, 165 150 C 165.550 150, 166 149.310, 166 148.467 C 166 146.854, 172.313 140, 173.798 140 C 174.273 140, 175.264 138.875, 176 137.500 C 176.736 136.125, 178.162 135, 179.169 135 C 180.176 135, 181 134.550, 181 134 C 181 133.450, 181.900 133, 183 133 C 184.100 133, 185 132.550, 185 132 C 185 131.381, 190.333 131, 199 131 C 207.667 131, 213 131.381, 213 132 C 213 132.593, 216.667 133, 222 133 C 227.333 133, 231 133.407, 231 134 C 231 134.593, 234.667 135, 240 135 C 245.333 135, 249 134.593, 249 134 C 249 133.450, 251.250 133, 254 133 C 256.750 133, 259 132.550, 259 132 C 259 131.450, 260.125 131, 261.500 131 C 262.875 131, 264 130.550, 264 130 C 264 129.450, 264.900 129, 266 129 C 267.100 129, 268 128.550, 268 128 C 268 127.450, 268.932 127, 270.071 127 C 271.211 127, 272.770 126.438, 273.537 125.750 C 277.005 122.639, 278.015 122, 279.458 122 C 280.306 122, 281 121.550, 281 121 C 281 120.450, 281.482 120, 282.071 120 C 283.456 120, 286 117.456, 286 116.071 C 286 115.482, 286.450 115, 287 115 C 287.550 115, 288 114.325, 288 113.500 C 288 112.675, 288.450 112, 289 112 C 289.550 112, 290 111.325, 290 110.500 C 290 109.675, 290.450 109, 291 109 C 291.550 109, 292 108.100, 292 107 C 292 105.889, 292.667 105, 293.500 105 C 294.548 105, 295 103.944, 295 101.500 C 295 99.575, 295.450 98, 296 98 C 296.624 98, 297 92.167, 297 82.500 C 297 72.833, 296.624 67, 296 67 C 295.450 67, 295 64.750, 295 62 C 295 58.222, 294.633 57, 293.500 57 C 292.567 57, 292 56.056, 292 54.500 C 292 53.125, 291.550 52, 291 52 C 290.450 52, 290 50.650, 290 49 C 290 47.350, 289.550 46, 289 46 C 288.450 46, 288 45.100, 288 44 C 288 42.900, 287.550 42, 287 42 C 286.450 42, 286 41.070, 286 39.933 C 286 38.796, 284.425 36.380, 282.500 34.565 C 280.575 32.749, 279 30.703, 279 30.017 C 279 28.709, 272.170 22, 270.838 22 C 270.414 22, 268.492 20.425, 266.567 18.500 C 264.642 16.575, 262.377 15, 261.533 15 C 260.690 15, 260 14.550, 260 14 C 260 13.450, 259.325 13, 258.500 13 C 257.675 13, 257 12.550, 257 12 C 257 11.450, 256.132 11, 255.071 11 C 254.011 11, 252.468 10.325, 251.643 9.500 C 250.818 8.675, 248.761 8, 247.071 8 C 245.382 8, 244 7.550, 244 7 C 244 6.436, 241.167 6, 237.500 6 C 233.833 6, 231 5.564, 231 5 C 231 4.400, 227 4, 221 4 C 215 4, 211 4.400, 211 5 M 211 12 C 211 12.550, 208.525 13, 205.500 13 C 202.475 13, 200 13.450, 200 14 C 200 14.550, 198.988 15.011, 197.750 15.025 C 195.079 15.054, 185.543 18.151, 181.186 20.404 C 179.488 21.282, 177.177 22, 176.050 22 C 174.922 22, 174 22.450, 174 23 C 174 23.550, 173.100 24, 172 24 C 170.900 24, 170 24.450, 170 25 C 170 25.550, 169.100 26, 168 26 C 166.900 26, 166 26.450, 166 27 C 166 27.550, 165.316 28, 164.480 28 C 163.644 28, 161.282 29.048, 159.230 30.328 C 157.179 31.609, 154.037 33.294, 152.250 34.072 C 150.463 34.851, 149 35.828, 149 36.244 C 149 36.660, 148.325 37, 147.500 37 C 146.675 37, 146 37.450, 146 38 C 146 38.550, 145.100 39, 144 39 C 142.900 39, 142 39.348, 142 39.773 C 142 40.198, 140.425 41.393, 138.500 42.430 C 136.575 43.467, 135 44.694, 135 45.157 C 135 45.621, 134.199 46, 133.221 46 C 132.242 46, 130.793 46.900, 130 48 C 129.207 49.100, 128.176 50, 127.708 50 C 127.240 50, 126.230 50.563, 125.463 51.250 C 123.341 53.153, 121.842 54.271, 117.757 57 C 115.698 58.375, 114.011 59.837, 114.007 60.250 C 114.003 60.663, 113.522 61, 112.938 61 C 111.660 61, 98 74.880, 98 76.179 C 98 76.681, 96.987 78.126, 95.750 79.392 C 94.512 80.657, 92.150 83.417, 90.500 85.523 C 88.850 87.630, 86.938 89.917, 86.250 90.605 C 85.563 91.294, 85 92.129, 85 92.462 C 85 92.795, 83.537 94.602, 81.750 96.479 C 77.254 101.199, 76 102.782, 76 103.737 C 76 104.189, 75.100 105.207, 74 106 C 72.900 106.793, 72 108.242, 72 109.221 C 72 110.199, 71.621 111, 71.157 111 C 70.694 111, 69.467 112.575, 68.430 114.500 C 67.393 116.425, 66.198 118, 65.773 118 C 65.348 118, 65 118.900, 65 120 C 65 121.100, 64.550 122, 64 122 C 63.450 122, 63 122.675, 63 123.500 C 63 124.325, 62.550 125, 62 125 C 61.450 125, 61 125.900, 61 127 C 61 128.100, 60.550 129, 60 129 C 59.450 129, 59 129.863, 59 130.917 C 59 131.971, 58.640 132.983, 58.199 133.167 C 57.054 133.643, 52 142.986, 52 144.626 C 52 145.382, 51.550 146, 51 146 C 50.450 146, 50 147.125, 50 148.500 C 50 149.875, 49.550 151, 49 151 C 48.450 151, 48 151.863, 48 152.917 C 48 153.971, 47.663 154.983, 47.250 155.167 C 46.553 155.477, 44.234 161.069, 41.618 168.750 C 41.009 170.537, 40.171 172, 39.755 172 C 39.340 172, 39 173.575, 39 175.500 C 39 177.425, 38.550 179, 38 179 C 37.450 179, 37 180.800, 37 183 C 37 185.200, 36.550 187, 36 187 C 35.450 187, 35 189.025, 35 191.500 C 35 193.975, 34.550 196, 34 196 C 33.450 196, 33 197.050, 33 198.333 C 33 199.617, 32.691 200.976, 32.313 201.354 C 31.232 202.435, 28.121 215.151, 28.058 218.750 C 28.026 220.537, 27.550 222, 27 222 C 26.450 222, 26 224.475, 26 227.500 C 26 230.525, 25.550 233, 25 233 C 24.450 233, 24 235.475, 24 238.500 C 24 241.525, 23.550 244, 23 244 C 22.450 244, 22 246.106, 22 248.679 C 22 251.252, 21.582 254.740, 21.071 256.429 C 20.560 258.118, 19.439 264.675, 18.580 271 C 17.721 277.325, 16.739 284.075, 16.399 286 C 16.058 287.925, 15.575 293.775, 15.324 299 C 15.073 304.225, 14.447 308.928, 13.934 309.450 C 13.420 309.972, 13 317.960, 13 327.200 C 13 337.733, 12.627 344, 12 344 C 11.344 344, 11 365, 11 405 C 11 445, 11.344 466, 12 466 C 12.643 466, 13 475.980, 13 493.941 C 13 511.490, 13.372 522.112, 14 522.500 C 14.562 522.847, 15 527.621, 15 533.392 C 15 539.043, 15.418 546.104, 15.928 549.083 C 16.439 552.062, 17.605 560.800, 18.521 568.500 C 19.436 576.200, 20.593 583.534, 21.093 584.797 C 21.592 586.060, 22 589.323, 22 592.047 C 22 594.771, 22.450 597, 23 597 C 23.564 597, 24 599.833, 24 603.500 C 24 607.075, 24.407 610, 24.903 610 C 25.400 610, 26.046 612.137, 26.338 614.750 C 27 620.679, 28.294 627.470, 30.481 636.500 C 31.414 640.350, 32.414 644.743, 32.704 646.262 C 32.994 647.781, 33.629 649.271, 34.115 649.571 C 34.602 649.872, 35 652.341, 35 655.059 C 35 657.777, 35.450 660, 36 660 C 36.550 660, 37 661.773, 37 663.941 C 37 666.109, 37.450 668.160, 38 668.500 C 38.550 668.840, 39 670.195, 39 671.512 C 39 672.829, 39.409 674.940, 39.909 676.203 C 40.410 677.466, 41.556 681.200, 42.457 684.500 C 45.772 696.642, 46.365 698.520, 47.174 699.450 C 47.628 699.972, 48 701.660, 48 703.200 C 48 704.740, 48.450 706, 49 706 C 49.550 706, 50 707.356, 50 709.014 C 50 710.671, 50.402 712.809, 50.893 713.764 C 51.384 714.719, 53.053 719.550, 54.601 724.500 C 56.149 729.450, 57.772 733.650, 58.208 733.833 C 58.643 734.017, 59 735.254, 59 736.583 C 59 737.913, 59.450 739, 60 739 C 60.550 739, 61 740.350, 61 742 C 61 743.650, 61.450 745, 62 745 C 62.550 745, 63 746.323, 63 747.941 C 63 749.559, 63.450 751.160, 64 751.500 C 64.550 751.840, 65 753.441, 65 755.059 C 65 756.677, 65.399 758, 65.887 758 C 66.374 758, 67.016 759.237, 67.312 760.750 C 68.172 765.137, 70.421 771, 71.245 771 C 71.660 771, 72 772.350, 72 774 C 72 775.650, 72.450 777, 73 777 C 73.550 777, 74 778.125, 74 779.500 C 74 780.875, 74.450 782, 75 782 C 75.550 782, 76 783.098, 76 784.441 C 76 785.784, 76.450 787.160, 77 787.500 C 77.550 787.840, 78 789.024, 78 790.130 C 78 791.237, 78.675 792.818, 79.500 793.643 C 80.325 794.468, 81 796.011, 81 797.071 C 81 798.132, 81.450 799, 82 799 C 82.550 799, 83 799.900, 83 801 C 83 802.100, 83.450 803, 84 803 C 84.550 803, 85 803.675, 85 804.500 C 85 805.325, 85.450 806, 86 806 C 86.550 806, 87 806.900, 87 808 C 87 809.100, 87.450 810, 88 810 C 88.550 810, 89 810.430, 89 810.956 C 89 811.875, 92.888 818.210, 94.986 820.708 C 95.544 821.372, 96 822.385, 96 822.958 C 96 823.531, 96.450 824, 97 824 C 97.550 824, 98 824.675, 98 825.500 C 98 826.325, 98.450 827, 99 827 C 99.550 827, 100 827.471, 100 828.048 C 100 829.413, 109.587 839, 110.952 839 C 111.529 839, 112 839.450, 112 840 C 112 840.577, 115.140 841, 119.419 841 C 127.036 841, 132.980 838.920, 132.994 836.250 C 132.997 835.563, 133.450 835, 134 835 C 134.550 835, 135 834.325, 135 833.500 C 135 832.675, 135.391 832, 135.868 832 C 136.346 832, 137.010 830.312, 137.344 828.250 C 137.679 826.188, 138.409 822.312, 138.967 819.637 C 139.525 816.963, 139.720 813.733, 139.401 812.460 C 138.399 808.469, 139.800 806, 143.067 806 C 144.680 806, 146 805.604, 146 805.119 C 146 804.635, 150.162 803.947, 155.250 803.590 C 160.338 803.233, 167.425 802.683, 171 802.368 C 178.919 801.670, 187.706 803.412, 188.374 805.811 C 188.632 806.740, 189.144 811.436, 189.511 816.246 C 189.878 821.057, 190.589 825.246, 191.089 825.555 C 191.590 825.865, 192 827.441, 192 829.059 C 192 830.677, 192.450 832, 193 832 C 193.550 832, 194 832.920, 194 834.045 C 194 835.170, 195.125 837.216, 196.500 838.591 C 197.875 839.966, 199 841.520, 199 842.045 C 199 842.570, 199.675 843, 200.500 843 C 201.325 843, 202 843.450, 202 844 C 202 844.550, 203.125 845, 204.500 845 C 205.875 845, 207 845.450, 207 846 C 207 847.768, 216.783 847.161, 219.089 845.250 C 224.153 841.053, 227 838.120, 227 837.099 C 227 836.494, 227.450 836, 228 836 C 228.550 836, 229 835.100, 229 834 C 229 832.900, 229.450 832, 230 832 C 230.550 832, 231 829.975, 231 827.500 C 231 825.025, 231.450 823, 232 823 C 232.550 823, 233 821.044, 233 818.654 C 233 809.753, 235.215 807.606, 243.390 808.585 C 252.611 809.689, 311.916 809.742, 332.334 808.664 C 356.675 807.380, 357.129 807.629, 359.469 823.500 C 360.336 829.380, 362.322 836, 363.218 836 C 363.648 836, 364 836.482, 364 837.071 C 364 838.456, 366.544 841, 367.929 841 C 368.518 841, 369 841.450, 369 842 C 369 842.588, 372.500 843, 377.500 843 C 382.500 843, 386 842.588, 386 842 C 386 841.450, 386.710 841, 387.578 841 C 389.371 841, 396.933 833.153, 396.973 831.250 C 396.988 830.563, 397.450 830, 398 830 C 398.550 830, 399 829.325, 399 828.500 C 399 827.675, 399.450 827, 400 827 C 400.550 827, 401 825.650, 401 824 C 401 822.350, 401.450 821, 402 821 C 402.550 821, 403 818.750, 403 816 C 403 813.250, 403.450 811, 404 811 C 404.550 811, 405 810.325, 405 809.500 C 405 808.675, 405.675 808, 406.500 808 C 407.325 808, 408 807.550, 408 807 C 408 806.378, 413.667 806, 423 806 C 437.333 806, 438 806.089, 438 808 C 438 809.100, 438.450 810, 439 810 C 439.550 810, 440 812.527, 440 815.616 C 440 821.066, 442.471 830.383, 444.500 832.585 C 445.050 833.182, 446.394 834.869, 447.487 836.335 C 448.580 837.801, 450.043 839, 450.737 839 C 451.432 839, 452 839.450, 452 840 C 452 840.571, 455 841, 459 841 C 463 841, 466 840.571, 466 840 C 466 839.450, 466.482 839, 467.071 839 C 467.661 839, 468.731 838.438, 469.449 837.750 C 470.167 837.063, 471.710 835.838, 472.877 835.029 C 474.045 834.220, 475 832.923, 475 832.147 C 475 831.370, 475.801 830.007, 476.779 829.117 C 478.345 827.694, 479.821 824.684, 483.109 816.203 C 483.599 814.940, 484 813.027, 484 811.953 C 484 810.879, 484.450 810, 485 810 C 485.550 810, 486 809.293, 486 808.429 C 486 807.564, 486.643 806.214, 487.429 805.429 C 489.041 803.816, 497 803.460, 497 805 C 497 805.625, 502.980 806, 512.941 806 C 522.490 806, 529.130 806.401, 529.500 807 C 530.338 808.356, 567 808.356, 567 807 C 567 806.373, 573.333 806, 584 806 C 594.667 806, 601 805.627, 601 805 C 601 804.423, 604.151 804, 608.453 804 C 612.552 804, 616.940 803.576, 618.203 803.057 C 619.466 802.538, 623.538 801.827, 627.250 801.477 C 634.425 800.801, 636.625 798.591, 631.250 797.459 C 629.737 797.140, 627.719 796.456, 626.764 795.940 C 625.809 795.423, 624.121 795, 623.014 795 C 621.906 795, 621 794.550, 621 794 C 621 793.450, 619.200 793, 617 793 C 614.800 793, 613 792.550, 613 792 C 613 791.450, 611.875 791, 610.500 791 C 609.125 791, 608 790.550, 608 790 C 608 789.450, 606.869 789, 605.486 789 C 604.104 789, 602.191 788.605, 601.236 788.122 C 596.644 785.800, 591.748 784, 590.025 784 C 588.976 784, 587.840 783.550, 587.500 783 C 587.160 782.450, 585.784 782, 584.441 782 C 583.098 782, 582 781.550, 582 781 C 582 780.450, 580.013 780, 577.583 780 C 575.154 780, 573.017 779.662, 572.833 779.250 C 572.523 778.553, 566.931 776.234, 559.250 773.618 C 557.462 773.009, 556 772.171, 556 771.755 C 556 771.340, 555.127 771, 554.059 771 C 552.991 771, 551.840 770.550, 551.500 770 C 551.160 769.450, 550.009 769, 548.941 769 C 547.873 769, 547 768.550, 547 768 C 547 767.450, 546.382 767, 545.626 767 C 543.897 767, 535.141 762.166, 532.561 759.788 C 531.495 758.804, 529.907 758, 529.032 758 C 528.157 758, 526.793 757.100, 526 756 C 525.207 754.900, 523.758 754, 522.779 754 C 521.801 754, 521 753.647, 521 753.216 C 521 752.784, 519.755 751.696, 518.233 750.797 C 516.712 749.898, 514.016 747.776, 512.243 746.081 C 510.469 744.387, 508.569 743, 508.021 743 C 507.038 743, 505.617 741.947, 499.921 737 C 494.788 732.542, 494.093 732, 493.514 732 C 492.955 732, 490.494 729.795, 481.517 721.250 C 479.062 718.913, 476.591 717, 476.026 717 C 475.462 717, 475 716.542, 475 715.982 C 475 715.421, 471.063 710.958, 466.250 706.063 C 461.438 701.169, 456.150 695.512, 454.500 693.493 C 452.850 691.474, 450.375 688.534, 449 686.960 C 447.625 685.387, 445.150 682.456, 443.500 680.449 C 441.850 678.441, 439.938 676.201, 439.250 675.471 C 438.563 674.740, 438 673.436, 438 672.571 C 438 671.707, 437.438 670.982, 436.750 670.961 C 435.493 670.922, 429 662.796, 429 661.263 C 429 660.811, 428.100 659.793, 427 659 C 425.900 658.207, 425 657.189, 425 656.737 C 425 656.286, 424.109 654.960, 423.021 653.792 C 421.932 652.624, 419.795 649.830, 418.271 647.584 C 416.747 645.338, 415.162 643.350, 414.750 643.167 C 414.337 642.983, 414 642.405, 414 641.881 C 414 641.357, 413.080 639.932, 411.956 638.714 C 407.633 634.031, 405.002 630.451, 405.001 629.250 C 405.001 628.563, 404.550 628, 404 628 C 403.450 628, 403 627.534, 403 626.964 C 403 626.395, 402.084 624.932, 400.963 623.714 C 397.271 619.700, 392.020 612.519, 392.010 611.471 C 392.004 610.905, 391.100 609.793, 390 609 C 388.900 608.207, 388 607.223, 388 606.813 C 388 606.105, 384.159 601.550, 379.250 596.435 C 378.012 595.146, 377 593.841, 377 593.535 C 377 592.543, 361.010 577, 359.989 577 C 359.445 577, 359 576.550, 359 576 C 359 575.450, 358.325 575, 357.500 575 C 356.675 575, 356 574.550, 356 574 C 356 573.450, 355.325 573, 354.500 573 C 353.675 573, 353 572.550, 353 572 C 353 571.450, 352.100 571, 351 571 C 349.900 571, 349 570.605, 349 570.123 C 349 569.640, 346.413 567.953, 343.250 566.373 C 340.087 564.793, 337.350 563.163, 337.167 562.750 C 336.983 562.337, 335.971 562, 334.917 562 C 333.863 562, 333 561.550, 333 561 C 333 560.450, 331.650 560, 330 560 C 328.350 560, 327 559.550, 327 559 C 327 558.450, 326.319 558, 325.486 558 C 324.654 558, 323.191 557.596, 322.236 557.103 C 320.213 556.057, 314.030 553.747, 308.929 552.131 C 306.965 551.509, 303.702 551, 301.679 551 C 299.656 551, 298 550.550, 298 550 C 298 549.363, 289.833 549, 275.500 549 C 261.167 549, 253 549.363, 253 550 C 253 550.550, 250.894 551, 248.321 551 C 245.748 551, 242.260 551.421, 240.571 551.935 C 238.882 552.450, 234.575 553.617, 231 554.529 C 227.425 555.441, 223.719 556.596, 222.764 557.094 C 221.809 557.592, 219.923 558, 218.573 558 C 217.223 558, 215.840 558.450, 215.500 559 C 215.160 559.550, 213.109 560, 210.941 560 C 208.773 560, 207 560.450, 207 561 C 207 561.550, 205.650 562, 204 562 C 202.350 562, 201 562.450, 201 563 C 201 563.550, 200.244 564, 199.321 564 C 198.398 564, 196.260 564.439, 194.571 564.976 C 181.075 569.264, 174.727 571, 172.546 571 C 171.146 571, 170 571.450, 170 572 C 170 572.550, 168.875 573, 167.500 573 C 166.125 573, 165 573.450, 165 574 C 165 574.550, 163.200 575, 161 575 C 157.725 575, 157 574.653, 157 573.083 C 157 572.029, 156.644 571.017, 156.210 570.833 C 155.161 570.391, 150 559.336, 150 557.532 C 150 556.754, 149.550 555.840, 149 555.500 C 148.450 555.160, 148 554.009, 148 552.941 C 148 551.873, 147.550 551, 147 551 C 146.450 551, 146 549.200, 146 547 C 146 544.800, 145.550 543, 145 543 C 144.450 543, 144 542.244, 144 541.321 C 144 540.398, 143.561 538.260, 143.024 536.571 C 138.736 523.075, 137 516.727, 137 514.546 C 137 513.146, 136.550 512, 136 512 C 135.450 512, 135 510.650, 135 509 C 135 507.350, 134.550 506, 134 506 C 133.450 506, 133 503.975, 133 501.500 C 133 499.025, 132.550 497, 132 497 C 131.450 497, 131 495.794, 131 494.321 C 131 492.848, 130.577 490.260, 130.061 488.571 C 129.545 486.882, 128.379 481.675, 127.472 477 C 126.564 472.325, 125.412 467.719, 124.911 466.764 C 124.410 465.809, 124 462.771, 124 460.014 C 124 457.256, 123.550 455, 123 455 C 122.422 455, 122 451.833, 122 447.500 C 122 443.375, 121.599 440, 121.109 440 C 120.619 440, 119.991 436.738, 119.712 432.750 C 119.434 428.762, 118.440 420.550, 117.504 414.500 C 113.960 391.601, 111.700 326.258, 113.872 309.500 C 114.442 305.100, 115.435 296.325, 116.079 290 C 116.723 283.675, 117.602 275.575, 118.032 272 C 118.461 268.425, 119.143 262.688, 119.545 259.250 C 119.948 255.812, 120.665 253, 121.139 253 C 121.612 253, 122 250.525, 122 247.500 C 122 244.475, 122.403 242, 122.895 242 C 123.387 242, 124.031 240.313, 124.326 238.250 C 125.445 230.420, 127.104 222.674, 128.034 220.936 C 128.565 219.944, 129 218.003, 129 216.625 C 129 215.246, 129.450 213.840, 130 213.500 C 130.550 213.160, 131 211.559, 131 209.941 C 131 208.323, 131.450 207, 132 207 C 132.550 207, 133 204.975, 133 202.500 C 133 200.025, 133.450 198, 134 198 C 134.550 198, 135 196.650, 135 195 C 135 193.350, 135.399 192, 135.887 192 C 136.374 192, 137.001 190.763, 137.279 189.250 C 138.029 185.178, 142.163 174.551, 143.147 174.167 C 143.616 173.983, 144 172.971, 144 171.917 C 144 170.863, 144.450 170, 145 170 C 145.550 170, 146 168.875, 146 167.500 C 146 166.125, 146.450 165, 147 165 C 147.550 165, 148 164.100, 148 163 C 148 161.900, 148.382 161, 148.848 161 C 149.315 161, 150.512 159.191, 151.509 156.980 C 152.506 154.769, 154.599 151.623, 156.161 149.989 C 157.722 148.355, 159 146.556, 159 145.991 C 159 144.290, 177.655 126, 179.390 126 C 180.276 126, 181 125.550, 181 125 C 181 124.369, 187.833 124, 199.500 124 C 209.675 124, 218 124.391, 218 124.869 C 218 125.560, 227.886 126.532, 241 127.130 C 244.403 127.285, 253 125.659, 253 124.861 C 253 124.387, 254.575 124, 256.500 124 C 258.425 124, 260 123.550, 260 123 C 260 122.450, 261.350 122, 263 122 C 264.650 122, 266 121.550, 266 121 C 266 120.450, 266.900 120, 268 120 C 269.100 120, 270 119.647, 270 119.216 C 270 118.784, 271.449 117.575, 273.220 116.529 C 277.784 113.833, 282.172 109.154, 284.500 104.499 C 285.600 102.299, 286.765 100.275, 287.088 100 C 292.018 95.807, 289.500 58.751, 283.864 52.550 C 283.389 52.028, 283 50.790, 283 49.800 C 283 48.810, 282.550 48, 282 48 C 281.450 48, 281 47.100, 281 46 C 281 44.900, 280.550 44, 280 44 C 279.450 44, 279 43.518, 279 42.929 C 279 42.339, 278.438 41.242, 277.750 40.491 C 277.063 39.740, 275.150 37.477, 273.500 35.463 C 268.317 29.137, 263.199 24, 262.078 24 C 261.485 24, 261 23.550, 261 23 C 261 22.450, 260.100 22, 259 22 C 257.900 22, 257 21.550, 257 21 C 257 20.450, 256.100 20, 255 20 C 253.900 20, 253 19.611, 253 19.136 C 253 18.661, 250.863 17.509, 248.250 16.576 C 245.637 15.644, 242.719 14.458, 241.764 13.940 C 240.809 13.423, 238.446 13, 236.514 13 C 234.581 13, 233 12.550, 233 12 C 233 11.394, 228.667 11, 222 11 C 215.333 11, 211 11.394, 211 12 M 217.378 47.531 C 215.180 49.729, 214.901 50.656, 215.490 53.798 C 216.437 58.849, 216.597 59, 220.991 59 C 226.703 59, 230.968 52.825, 227.589 49.446 C 226.813 48.671, 226.026 47.647, 225.839 47.173 C 224.898 44.779, 219.919 44.990, 217.378 47.531" stroke="none" fill="#2e2f2d" fill-rule="evenodd"/><path d="M 211 12 C 211 12.550, 208.525 13, 205.500 13 C 202.475 13, 200 13.450, 200 14 C 200 14.550, 198.988 15.011, 197.750 15.025 C 195.079 15.054, 185.543 18.151, 181.186 20.404 C 179.488 21.282, 177.177 22, 176.050 22 C 174.922 22, 174 22.450, 174 23 C 174 23.550, 173.100 24, 172 24 C 170.900 24, 170 24.450, 170 25 C 170 25.550, 169.100 26, 168 26 C 166.900 26, 166 26.450, 166 27 C 166 27.550, 165.316 28, 164.480 28 C 163.644 28, 161.282 29.048, 159.230 30.328 C 157.179 31.609, 154.037 33.294, 152.250 34.072 C 150.463 34.851, 149 35.828, 149 36.244 C 149 36.660, 148.325 37, 147.500 37 C 146.675 37, 146 37.450, 146 38 C 146 38.550, 145.100 39, 144 39 C 142.900 39, 142 39.348, 142 39.773 C 142 40.198, 140.425 41.393, 138.500 42.430 C 136.575 43.467, 135 44.694, 135 45.157 C 135 45.621, 134.199 46, 133.221 46 C 132.242 46, 130.793 46.900, 130 48 C 129.207 49.100, 128.176 50, 127.708 50 C 127.240 50, 126.230 50.563, 125.463 51.250 C 123.341 53.153, 121.842 54.271, 117.757 57 C 115.698 58.375, 114.011 59.837, 114.007 60.250 C 114.003 60.663, 113.522 61, 112.938 61 C 111.660 61, 98 74.880, 98 76.179 C 98 76.681, 96.987 78.126, 95.750 79.392 C 94.512 80.657, 92.150 83.417, 90.500 85.523 C 88.850 87.630, 86.938 89.917, 86.250 90.605 C 85.563 91.294, 85 92.129, 85 92.462 C 85 92.795, 83.537 94.602, 81.750 96.479 C 77.254 101.199, 76 102.782, 76 103.737 C 76 104.189, 75.100 105.207, 74 106 C 72.900 106.793, 72 108.242, 72 109.221 C 72 110.199, 71.621 111, 71.157 111 C 70.694 111, 69.467 112.575, 68.430 114.500 C 67.393 116.425, 66.198 118, 65.773 118 C 65.348 118, 65 118.900, 65 120 C 65 121.100, 64.550 122, 64 122 C 63.450 122, 63 122.675, 63 123.500 C 63 124.325, 62.550 125, 62 125 C 61.450 125, 61 125.900, 61 127 C 61 128.100, 60.550 129, 60 129 C 59.450 129, 59 129.863, 59 130.917 C 59 131.971, 58.640 132.983, 58.199 133.167 C 57.054 133.643, 52 142.986, 52 144.626 C 52 145.382, 51.550 146, 51 146 C 50.450 146, 50 147.125, 50 148.500 C 50 149.875, 49.550 151, 49 151 C 48.450 151, 48 151.863, 48 152.917 C 48 153.971, 47.663 154.983, 47.250 155.167 C 46.553 155.477, 44.234 161.069, 41.618 168.750 C 41.009 170.537, 40.171 172, 39.755 172 C 39.340 172, 39 173.575, 39 175.500 C 39 177.425, 38.550 179, 38 179 C 37.450 179, 37 180.800, 37 183 C 37 185.200, 36.550 187, 36 187 C 35.450 187, 35 189.025, 35 191.500 C 35 193.975, 34.550 196, 34 196 C 33.450 196, 33 197.050, 33 198.333 C 33 199.617, 32.691 200.976, 32.313 201.354 C 31.232 202.435, 28.121 215.151, 28.058 218.750 C 28.026 220.537, 27.550 222, 27 222 C 26.450 222, 26 224.475, 26 227.500 C 26 230.525, 25.550 233, 25 233 C 24.450 233, 24 235.475, 24 238.500 C 24 241.525, 23.550 244, 23 244 C 22.450 244, 22 246.106, 22 248.679 C 22 251.252, 21.582 254.740, 21.071 256.429 C 20.560 258.118, 19.439 264.675, 18.580 271 C 17.721 277.325, 16.739 284.075, 16.399 286 C 16.058 287.925, 15.575 293.775, 15.324 299 C 15.073 304.225, 14.447 308.928, 13.934 309.450 C 13.420 309.972, 13 317.960, 13 327.200 C 13 337.733, 12.627 344, 12 344 C 11.344 344, 11 365, 11 405 C 11 445, 11.344 466, 12 466 C 12.643 466, 13 475.980, 13 493.941 C 13 511.490, 13.372 522.112, 14 522.500 C 14.562 522.847, 15 527.621, 15 533.392 C 15 539.043, 15.418 546.104, 15.928 549.083 C 16.439 552.062, 17.605 560.800, 18.521 568.500 C 19.436 576.200, 20.593 583.534, 21.093 584.797 C 21.592 586.060, 22 589.323, 22 592.047 C 22 594.771, 22.450 597, 23 597 C 23.564 597, 24 599.833, 24 603.500 C 24 607.075, 24.407 610, 24.903 610 C 25.400 610, 26.046 612.137, 26.338 614.750 C 27 620.679, 28.294 627.470, 30.481 636.500 C 31.414 640.350, 32.414 644.743, 32.704 646.262 C 32.994 647.781, 33.629 649.271, 34.115 649.571 C 34.602 649.872, 35 652.341, 35 655.059 C 35 657.777, 35.450 660, 36 660 C 36.550 660, 37 661.773, 37 663.941 C 37 666.109, 37.450 668.160, 38 668.500 C 38.550 668.840, 39 670.195, 39 671.512 C 39 672.829, 39.409 674.940, 39.909 676.203 C 40.410 677.466, 41.556 681.200, 42.457 684.500 C 45.772 696.642, 46.365 698.520, 47.174 699.450 C 47.628 699.972, 48 701.660, 48 703.200 C 48 704.740, 48.450 706, 49 706 C 49.550 706, 50 707.356, 50 709.014 C 50 710.671, 50.402 712.809, 50.893 713.764 C 51.384 714.719, 53.053 719.550, 54.601 724.500 C 56.149 729.450, 57.772 733.650, 58.208 733.833 C 58.643 734.017, 59 735.254, 59 736.583 C 59 737.913, 59.450 739, 60 739 C 60.550 739, 61 740.350, 61 742 C 61 743.650, 61.450 745, 62 745 C 62.550 745, 63 746.323, 63 747.941 C 63 749.559, 63.450 751.160, 64 751.500 C 64.550 751.840, 65 753.441, 65 755.059 C 65 756.677, 65.399 758, 65.887 758 C 66.374 758, 67.016 759.237, 67.312 760.750 C 68.172 765.137, 70.421 771, 71.245 771 C 71.660 771, 72 772.350, 72 774 C 72 775.650, 72.450 777, 73 777 C 73.550 777, 74 778.125, 74 779.500 C 74 780.875, 74.450 782, 75 782 C 75.550 782, 76 783.098, 76 784.441 C 76 785.784, 76.450 787.160, 77 787.500 C 77.550 787.840, 78 789.024, 78 790.130 C 78 791.237, 78.675 792.818, 79.500 793.643 C 80.325 794.468, 81 796.011, 81 797.071 C 81 798.132, 81.450 799, 82 799 C 82.550 799, 83 799.900, 83 801 C 83 802.100, 83.450 803, 84 803 C 84.550 803, 85 803.675, 85 804.500 C 85 805.325, 85.450 806, 86 806 C 86.550 806, 87 806.900, 87 808 C 87 809.100, 87.450 810, 88 810 C 88.550 810, 89 810.430, 89 810.956 C 89 811.875, 92.888 818.210, 94.986 820.708 C 95.544 821.372, 96 822.385, 96 822.958 C 96 823.531, 96.450 824, 97 824 C 97.550 824, 98 824.675, 98 825.500 C 98 826.325, 98.450 827, 99 827 C 99.550 827, 100 827.471, 100 828.048 C 100 829.413, 109.587 839, 110.952 839 C 111.529 839, 112 839.450, 112 840 C 112 840.577, 115.140 841, 119.419 841 C 127.036 841, 132.980 838.920, 132.994 836.250 C 132.997 835.563, 133.450 835, 134 835 C 134.550 835, 135 834.325, 135 833.500 C 135 832.675, 135.391 832, 135.868 832 C 136.346 832, 137.010 830.312, 137.344 828.250 C 137.679 826.188, 138.409 822.312, 138.967 819.637 C 139.525 816.963, 139.720 813.733, 139.401 812.460 C 138.399 808.469, 139.800 806, 143.067 806 C 144.680 806, 146 805.604, 146 805.119 C 146 804.635, 150.162 803.947, 155.250 803.590 C 160.338 803.233, 167.425 802.683, 171 802.368 C 178.919 801.670, 187.706 803.412, 188.374 805.811 C 188.632 806.740, 189.144 811.436, 189.511 816.246 C 189.878 821.057, 190.589 825.246, 191.089 825.555 C 191.590 825.865, 192 827.441, 192 829.059 C 192 830.677, 192.450 832, 193 832 C 193.550 832, 194 832.920, 194 834.045 C 194 835.170, 195.125 837.216, 196.500 838.591 C 197.875 839.966, 199 841.520, 199 842.045 C 199 842.570, 199.675 843, 200.500 843 C 201.325 843, 202 843.450, 202 844 C 202 844.550, 203.125 845, 204.500 845 C 205.875 845, 207 845.450, 207 846 C 207 847.768, 216.783 847.161, 219.089 845.250 C 224.153 841.053, 227 838.120, 227 837.099 C 227 836.494, 227.450 836, 228 836 C 228.550 836, 229 835.100, 229 834 C 229 832.900, 229.450 832, 230 832 C 230.550 832, 231 829.975, 231 827.500 C 231 825.025, 231.450 823, 232 823 C 232.550 823, 233 821.044, 233 818.654 C 233 809.753, 235.215 807.606, 243.390 808.585 C 252.611 809.689, 311.916 809.742, 332.334 808.664 C 356.675 807.380, 357.129 807.629, 359.469 823.500 C 360.336 829.380, 362.322 836, 363.218 836 C 363.648 836, 364 836.482, 364 837.071 C 364 838.456, 366.544 841, 367.929 841 C 368.518 841, 369 841.450, 369 842 C 369 842.588, 372.500 843, 377.500 843 C 382.500 843, 386 842.588, 386 842 C 386 841.450, 386.710 841, 387.578 841 C 389.371 841, 396.933 833.153, 396.973 831.250 C 396.988 830.563, 397.450 830, 398 830 C 398.550 830, 399 829.325, 399 828.500 C 399 827.675, 399.450 827, 400 827 C 400.550 827, 401 825.650, 401 824 C 401 822.350, 401.450 821, 402 821 C 402.550 821, 403 818.750, 403 816 C 403 813.250, 403.450 811, 404 811 C 404.550 811, 405 810.325, 405 809.500 C 405 808.675, 405.675 808, 406.500 808 C 407.325 808, 408 807.550, 408 807 C 408 806.378, 413.667 806, 423 806 C 437.333 806, 438 806.089, 438 808 C 438 809.100, 438.450 810, 439 810 C 439.550 810, 440 812.527, 440 815.616 C 440 821.066, 442.471 830.383, 444.500 832.585 C 445.050 833.182, 446.394 834.869, 447.487 836.335 C 448.580 837.801, 450.043 839, 450.737 839 C 451.432 839, 452 839.450, 452 840 C 452 840.571, 455 841, 459 841 C 463 841, 466 840.571, 466 840 C 466 839.450, 466.482 839, 467.071 839 C 467.661 839, 468.731 838.438, 469.449 837.750 C 470.167 837.063, 471.710 835.838, 472.877 835.029 C 474.045 834.220, 475 832.923, 475 832.147 C 475 831.370, 475.801 830.007, 476.779 829.117 C 478.345 827.694, 479.821 824.684, 483.109 816.203 C 483.599 814.940, 484 813.027, 484 811.953 C 484 810.879, 484.450 810, 485 810 C 485.550 810, 486 809.293, 486 808.429 C 486 807.564, 486.643 806.214, 487.429 805.429 C 489.041 803.816, 497 803.460, 497 805 C 497 805.625, 502.980 806, 512.941 806 C 522.490 806, 529.130 806.401, 529.500 807 C 530.338 808.356, 567 808.356, 567 807 C 567 806.373, 573.333 806, 584 806 C 594.667 806, 601 805.627, 601 805 C 601 804.423, 604.151 804, 608.453 804 C 612.552 804, 616.940 803.576, 618.203 803.057 C 619.466 802.538, 623.538 801.827, 627.250 801.477 C 634.425 800.801, 636.625 798.591, 631.250 797.459 C 629.737 797.140, 627.719 796.456, 626.764 795.940 C 625.809 795.423, 624.121 795, 623.014 795 C 621.906 795, 621 794.550, 621 794 C 621 793.450, 619.200 793, 617 793 C 614.800 793, 613 792.550, 613 792 C 613 791.450, 611.875 791, 610.500 791 C 609.125 791, 608 790.550, 608 790 C 608 789.450, 606.869 789, 605.486 789 C 604.104 789, 602.191 788.605, 601.236 788.122 C 596.644 785.800, 591.748 784, 590.025 784 C 588.976 784, 587.840 783.550, 587.500 783 C 587.160 782.450, 585.784 782, 584.441 782 C 583.098 782, 582 781.550, 582 781 C 582 780.450, 580.013 780, 577.583 780 C 575.154 780, 573.017 779.662, 572.833 779.250 C 572.523 778.553, 566.931 776.234, 559.250 773.618 C 557.462 773.009, 556 772.171, 556 771.755 C 556 771.340, 555.127 771, 554.059 771 C 552.991 771, 551.840 770.550, 551.500 770 C 551.160 769.450, 550.009 769, 548.941 769 C 547.873 769, 547 768.550, 547 768 C 547 767.450, 546.382 767, 545.626 767 C 543.897 767, 535.141 762.166, 532.561 759.788 C 531.495 758.804, 529.907 758, 529.032 758 C 528.157 758, 526.793 757.100, 526 756 C 525.207 754.900, 523.758 754, 522.779 754 C 521.801 754, 521 753.647, 521 753.216 C 521 752.784, 519.755 751.696, 518.233 750.797 C 516.712 749.898, 514.016 747.776, 512.243 746.081 C 510.469 744.387, 508.569 743, 508.021 743 C 507.038 743, 505.617 741.947, 499.921 737 C 494.788 732.542, 494.093 732, 493.514 732 C 492.955 732, 490.494 729.795, 481.517 721.250 C 479.062 718.913, 476.591 717, 476.026 717 C 475.462 717, 475 716.542, 475 715.982 C 475 715.421, 471.063 710.958, 466.250 706.063 C 461.438 701.169, 456.150 695.512, 454.500 693.493 C 452.850 691.474, 450.375 688.534, 449 686.960 C 447.625 685.387, 445.150 682.456, 443.500 680.449 C 441.850 678.441, 439.938 676.201, 439.250 675.471 C 438.563 674.740, 438 673.436, 438 672.571 C 438 671.707, 437.438 670.982, 436.750 670.961 C 435.493 670.922, 429 662.796, 429 661.263 C 429 660.811, 428.100 659.793, 427 659 C 425.900 658.207, 425 657.189, 425 656.737 C 425 656.286, 424.109 654.960, 423.021 653.792 C 421.932 652.624, 419.795 649.830, 418.271 647.584 C 416.747 645.338, 415.162 643.350, 414.750 643.167 C 414.337 642.983, 414 642.405, 414 641.881 C 414 641.357, 413.080 639.932, 411.956 638.714 C 407.633 634.031, 405.002 630.451, 405.001 629.250 C 405.001 628.563, 404.550 628, 404 628 C 403.450 628, 403 627.534, 403 626.964 C 403 626.395, 402.084 624.932, 400.963 623.714 C 397.271 619.700, 392.020 612.519, 392.010 611.471 C 392.004 610.905, 391.100 609.793, 390 609 C 388.900 608.207, 388 607.223, 388 606.813 C 388 606.105, 384.159 601.550, 379.250 596.435 C 378.012 595.146, 377 593.841, 377 593.535 C 377 592.543, 361.010 577, 359.989 577 C 359.445 577, 359 576.550, 359 576 C 359 575.450, 358.325 575, 357.500 575 C 356.675 575, 356 574.550, 356 574 C 356 573.450, 355.325 573, 354.500 573 C 353.675 573, 353 572.550, 353 572 C 353 571.450, 352.100 571, 351 571 C 349.900 571, 349 570.605, 349 570.123 C 349 569.640, 346.413 567.953, 343.250 566.373 C 340.087 564.793, 337.350 563.163, 337.167 562.750 C 336.983 562.337, 335.971 562, 334.917 562 C 333.863 562, 333 561.550, 333 561 C 333 560.450, 331.650 560, 330 560 C 328.350 560, 327 559.550, 327 559 C 327 558.450, 326.319 558, 325.486 558 C 324.654 558, 323.191 557.596, 322.236 557.103 C 320.213 556.057, 314.030 553.747, 308.929 552.131 C 306.965 551.509, 303.702 551, 301.679 551 C 299.656 551, 298 550.550, 298 550 C 298 549.363, 289.833 549, 275.500 549 C 261.167 549, 253 549.363, 253 550 C 253 550.550, 250.894 551, 248.321 551 C 245.748 551, 242.260 551.421, 240.571 551.935 C 238.882 552.450, 234.575 553.617, 231 554.529 C 227.425 555.441, 223.719 556.596, 222.764 557.094 C 221.809 557.592, 219.923 558, 218.573 558 C 217.223 558, 215.840 558.450, 215.500 559 C 215.160 559.550, 213.109 560, 210.941 560 C 208.773 560, 207 560.450, 207 561 C 207 561.550, 205.650 562, 204 562 C 202.350 562, 201 562.450, 201 563 C 201 563.550, 200.244 564, 199.321 564 C 198.398 564, 196.260 564.439, 194.571 564.976 C 181.075 569.264, 174.727 571, 172.546 571 C 171.146 571, 170 571.450, 170 572 C 170 572.550, 168.875 573, 167.500 573 C 166.125 573, 165 573.450, 165 574 C 165 574.550, 163.200 575, 161 575 C 157.725 575, 157 574.653, 157 573.083 C 157 572.029, 156.644 571.017, 156.210 570.833 C 155.161 570.391, 150 559.336, 150 557.532 C 150 556.754, 149.550 555.840, 149 555.500 C 148.450 555.160, 148 554.009, 148 552.941 C 148 551.873, 147.550 551, 147 551 C 146.450 551, 146 549.200, 146 547 C 146 544.800, 145.550 543, 145 543 C 144.450 543, 144 542.244, 144 541.321 C 144 540.398, 143.561 538.260, 143.024 536.571 C 138.736 523.075, 137 516.727, 137 514.546 C 137 513.146, 136.550 512, 136 512 C 135.450 512, 135 510.650, 135 509 C 135 507.350, 134.550 506, 134 506 C 133.450 506, 133 503.975, 133 501.500 C 133 499.025, 132.550 497, 132 497 C 131.450 497, 131 495.794, 131 494.321 C 131 492.848, 130.577 490.260, 130.061 488.571 C 129.545 486.882, 128.379 481.675, 127.472 477 C 126.564 472.325, 125.412 467.719, 124.911 466.764 C 124.410 465.809, 124 462.771, 124 460.014 C 124 457.256, 123.550 455, 123 455 C 122.422 455, 122 451.833, 122 447.500 C 122 443.375, 121.599 440, 121.109 440 C 120.619 440, 119.991 436.738, 119.712 432.750 C 119.434 428.762, 118.440 420.550, 117.504 414.500 C 113.960 391.601, 111.700 326.258, 113.872 309.500 C 114.442 305.100, 115.435 296.325, 116.079 290 C 116.723 283.675, 117.602 275.575, 118.032 272 C 118.461 268.425, 119.143 262.688, 119.545 259.250 C 119.948 255.812, 120.665 253, 121.139 253 C 121.612 253, 122 250.525, 122 247.500 C 122 244.475, 122.403 242, 122.895 242 C 123.387 242, 124.031 240.313, 124.326 238.250 C 125.445 230.420, 127.104 222.674, 128.034 220.936 C 128.565 219.944, 129 218.003, 129 216.625 C 129 215.246, 129.450 213.840, 130 213.500 C 130.550 213.160, 131 211.559, 131 209.941 C 131 208.323, 131.450 207, 132 207 C 132.550 207, 133 204.975, 133 202.500 C 133 200.025, 133.450 198, 134 198 C 134.550 198, 135 196.650, 135 195 C 135 193.350, 135.399 192, 135.887 192 C 136.374 192, 137.001 190.763, 137.279 189.250 C 138.029 185.178, 142.163 174.551, 143.147 174.167 C 143.616 173.983, 144 172.971, 144 171.917 C 144 170.863, 144.450 170, 145 170 C 145.550 170, 146 168.875, 146 167.500 C 146 166.125, 146.450 165, 147 165 C 147.550 165, 148 164.100, 148 163 C 148 161.900, 148.382 161, 148.848 161 C 149.315 161, 150.512 159.191, 151.509 156.980 C 152.506 154.769, 154.599 151.623, 156.161 149.989 C 157.722 148.355, 159 146.556, 159 145.991 C 159 144.290, 177.655 126, 179.390 126 C 180.276 126, 181 125.550, 181 125 C 181 124.369, 187.833 124, 199.500 124 C 209.675 124, 218 124.391, 218 124.869 C 218 125.560, 227.886 126.532, 241 127.130 C 244.403 127.285, 253 125.659, 253 124.861 C 253 124.387, 254.575 124, 256.500 124 C 258.425 124, 260 123.550, 260 123 C 260 122.450, 261.350 122, 263 122 C 264.650 122, 266 121.550, 266 121 C 266 120.450, 266.900 120, 268 120 C 269.100 120, 270 119.647, 270 119.216 C 270 118.784, 271.449 117.575, 273.220 116.529 C 277.784 113.833, 282.172 109.154, 284.500 104.499 C 285.600 102.299, 286.765 100.275, 287.088 100 C 292.018 95.807, 289.500 58.751, 283.864 52.550 C 283.389 52.028, 283 50.790, 283 49.800 C 283 48.810, 282.550 48, 282 48 C 281.450 48, 281 47.100, 281 46 C 281 44.900, 280.550 44, 280 44 C 279.450 44, 279 43.518, 279 42.929 C 279 42.339, 278.438 41.242, 277.750 40.491 C 277.063 39.740, 275.150 37.477, 273.500 35.463 C 268.317 29.137, 263.199 24, 262.078 24 C 261.485 24, 261 23.550, 261 23 C 261 22.450, 260.100 22, 259 22 C 257.900 22, 257 21.550, 257 21 C 257 20.450, 256.100 20, 255 20 C 253.900 20, 253 19.611, 253 19.136 C 253 18.661, 250.863 17.509, 248.250 16.576 C 245.637 15.644, 242.719 14.458, 241.764 13.940 C 240.809 13.423, 238.446 13, 236.514 13 C 234.581 13, 233 12.550, 233 12 C 233 11.394, 228.667 11, 222 11 C 215.333 11, 211 11.394, 211 12 M 217.378 47.531 C 215.180 49.729, 214.901 50.656, 215.490 53.798 C 216.437 58.849, 216.597 59, 220.991 59 C 226.703 59, 230.968 52.825, 227.589 49.446 C 226.813 48.671, 226.026 47.647, 225.839 47.173 C 224.898 44.779, 219.919 44.990, 217.378 47.531 M 120 346.500 C 120 366.167, 120.355 377, 121 377 C 121.645 377, 122 366.167, 122 346.500 C 122 326.833, 121.645 316, 121 316 C 120.355 316, 120 326.833, 120 346.500 M 2 403 C 2 424.333, 2.354 436, 3 436 C 3.646 436, 4 424.333, 4 403 C 4 381.667, 3.646 370, 3 370 C 2.354 370, 2 381.667, 2 403 M 246 818 C 246 818.652, 261.667 819, 291 819 C 320.333 819, 336 818.652, 336 818 C 336 817.348, 320.333 817, 291 817 C 261.667 817, 246 817.348, 246 818" stroke="none" fill="#78c089" fill-rule="evenodd"/></svg>